<?xml version="1.0" encoding="UTF-8" standalone="no"?>
<svg width="14px" height="12px" viewBox="0 0 14 12" version="1.1" xmlns="http://www.w3.org/2000/svg" xmlns:xlink="http://www.w3.org/1999/xlink" xmlns:sketch="http://www.bohemiancoding.com/sketch/ns">
    <!-- Generator: Sketch 3.4.4 (17249) - http://www.bohemiancoding.com/sketch -->
    <title>papel</title>
    <desc>Created with Sketch.</desc>
    <defs></defs>
    <g id="Page-1" stroke="none" stroke-width="1" fill="none" fill-rule="evenodd" sketch:type="MSPage">
        <g id="Painel" sketch:type="MSArtboardGroup" transform="translate(-152.000000, -4701.000000)" fill="#005E7C">
            <g id="conteudo-do-painel" sketch:type="MSLayerGroup" transform="translate(130.000000, 150.000000)">
                <g id="card-pessoa" transform="translate(0.000000, 4270.000000)" sketch:type="MSShapeGroup">
                    <g id="dados-na-empresa" transform="translate(20.000000, 278.000000)">
                        <g id="papel">
                            <g id="icon">
                                <path d="M14.9071171,4.72538307 L11.9559087,4.72538307 L11.9559087,4.17555318 C11.9559087,3.52733007 11.4492401,3 10.8263307,3 L7.17366927,3 C6.55090306,3 6.04409133,3.52733007 6.04409133,4.17555318 L6.04409133,4.72538307 L3.09283516,4.72538307 C2.4902059,4.72538307 2,5.23547818 2,5.8627412 L2,13.8624432 C2,14.4897062 2.4902059,15 3.09283516,15 L14.9071171,15 C15.5095555,15 16,14.4897062 16,13.8624432 L16,5.8627412 C16,5.23567686 15.5097464,4.72538307 14.9071171,4.72538307 L14.9071171,4.72538307 Z M6.99844917,4.17555318 C6.99844917,4.07507388 7.07708825,3.99336926 7.17366927,3.99336926 L10.8263307,3.99336926 C10.922864,3.99336926 11.0015508,4.07507388 11.0015508,4.17555318 L11.0015508,4.72538307 L6.99844917,4.72538307 L6.99844917,4.17555318 Z M3.09283516,5.71875233 L14.9071171,5.71875233 C14.9835612,5.71875233 15.0456422,5.783371 15.0456422,5.8627412 L15.0456422,8.46914347 C13.5667215,9.04013212 11.3362918,9.37752999 8.9958724,9.37752999 C6.6608928,9.37752999 4.43323074,9.04132416 2.95435784,8.47227258 L2.95435784,5.8627412 C2.95435784,5.783371 3.01643881,5.71875233 3.09283516,5.71875233 L3.09283516,5.71875233 Z M14.9071171,14.0066307 L3.09283516,14.0066307 C3.01643881,14.0066307 2.95435784,13.9420121 2.95435784,13.8624432 L2.95435784,9.52479698 C4.30797127,9.98949512 6.08770549,10.2799066 8.02700833,10.3528696 C8.02700833,10.3584821 8.02624484,10.3641443 8.02624484,10.3699555 L8.02624484,10.5889935 C8.02624484,10.999702 8.3472431,11.3338217 8.74182235,11.3338217 L9.25812994,11.3338217 C9.6527569,11.3338217 9.97375516,10.999702 9.97375516,10.5889935 L9.97375516,10.3699555 C9.97375516,10.3641443 9.97299167,10.3582835 9.97299167,10.3524722 C11.9135829,10.2791616 13.6929354,9.98770706 15.0456422,9.52206521 L15.0456422,13.8624432 C15.0456422,13.9420121 14.9835612,14.0066307 14.9071171,14.0066307 L14.9071171,14.0066307 Z" id="papel"></path>
                            </g>
                        </g>
                    </g>
                </g>
            </g>
        </g>
    </g>
</svg>