<?xml version="1.0" encoding="UTF-8" standalone="no"?>
<svg width="15px" height="11px" viewBox="0 0 15 11" version="1.1" xmlns="http://www.w3.org/2000/svg" xmlns:xlink="http://www.w3.org/1999/xlink" xmlns:sketch="http://www.bohemiancoding.com/sketch/ns">
    <!-- Generator: Sketch 3.4.4 (17249) - http://www.bohemiancoding.com/sketch -->
    <title>icone</title>
    <desc>Created with Sketch.</desc>
    <defs></defs>
    <g id="Page-1" stroke="none" stroke-width="1" fill="none" fill-rule="evenodd" sketch:type="MSPage">
        <g id="Painel" sketch:type="MSArtboardGroup" transform="translate(-928.000000, -967.000000)" fill="#005E7C">
            <g id="conteudo-do-painel" sketch:type="MSLayerGroup" transform="translate(130.000000, 150.000000)">
                <g id="card-projetos" transform="translate(720.000000, 395.000000)" sketch:type="MSShapeGroup">
                    <g id="interacoes" transform="translate(20.000000, 421.000000)">
                        <g id="seguidores" transform="translate(58.000000, 0.000000)">
                            <path d="M5.25075352,7.08946477 C7.53453617,7.08946477 9.45929965,8.87624257 9.6625921,11.1697993 L0.840170797,11.1697993 C1.04346325,8.87624257 2.96775578,7.08946477 5.25075352,7.08946477 L5.25075352,7.08946477 Z M5.25075352,1.82829072 C6.40316268,1.82829072 7.26405517,2.99878456 7.26405517,4.04528946 C7.26405517,5.09099854 6.40316268,6.2605374 5.25075352,6.2605374 C4.09928625,6.2605374 3.23902168,5.09099854 3.23902168,4.04528946 C3.23902168,2.99878456 4.09928625,1.82829072 5.25075352,1.82829072 L5.25075352,1.82829072 Z M11.1306932,4.634038 C11.8747907,4.634038 12.4520157,5.4481631 12.4520157,6.1488041 C12.4520157,6.84912677 11.8747907,7.66309271 11.1306932,7.66309271 C10.3878516,7.66309271 9.81156857,6.84912677 9.81156857,6.1488041 C9.81156857,5.4481631 10.3878516,4.634038 11.1306932,4.634038 L11.1306932,4.634038 Z M10.4814133,11.1697993 C10.4230157,10.337052 10.1652503,9.53375005 9.73323426,8.8386798 C10.1735704,8.60948329 10.6434193,8.4932934 11.1306932,8.4932934 C12.664884,8.4932934 13.9535541,9.63911678 14.1568465,11.1697993 L10.4814133,11.1697993 Z M12.4989534,7.91457221 C12.9903089,7.46365991 13.2700519,6.82620712 13.2700519,6.1488041 C13.2700519,4.90095643 12.2703868,3.80622477 11.1306932,3.80622477 C9.99256949,3.80622477 8.99431723,4.90095643 8.99431723,6.1488041 C8.99431723,6.82748043 9.27468813,7.46588821 9.76698552,7.91648218 C9.59744432,7.98508197 9.42978692,8.05813836 9.2596178,8.15395523 C8.59777922,7.37341378 7.77095194,6.80790323 6.85888312,6.51106191 C7.61585315,5.92231338 8.08130651,4.98897426 8.08130651,4.04528946 C8.08130651,2.4230875 6.75857125,1 5.25075352,1 C3.74324975,1 2.42098543,2.4230875 2.42098543,4.04528946 C2.42098543,4.98897426 2.88659578,5.92231338 3.64403675,6.51153941 C1.49227646,7.22093444 0,9.28895545 0,11.5850588 C0,11.8137778 0.183669625,12 0.409096618,12 L14.5902755,12 C14.8161734,12 15,11.8137778 15,11.5850588 C15,9.95521697 13.999236,8.49377089 12.4989534,7.91457221 L12.4989534,7.91457221 Z" id="icone"></path>
                        </g>
                    </g>
                </g>
            </g>
        </g>
    </g>
</svg>