<?xml version="1.0" encoding="UTF-8" standalone="no"?>
<svg width="16px" height="11px" viewBox="0 0 16 11" version="1.1" xmlns="http://www.w3.org/2000/svg" xmlns:xlink="http://www.w3.org/1999/xlink" xmlns:sketch="http://www.bohemiancoding.com/sketch/ns">
    <!-- Generator: Sketch 3.4.4 (17249) - http://www.bohemiancoding.com/sketch -->
    <title>Fill 1</title>
    <desc>Created with Sketch.</desc>
    <defs></defs>
    <g id="Page-1" stroke="none" stroke-width="1" fill="none" fill-rule="evenodd" sketch:type="MSPage">
        <g id="Painel" sketch:type="MSArtboardGroup" transform="translate(-871.000000, -871.000000)" fill="#005E7C">
            <g id="conteudo-do-painel" sketch:type="MSLayerGroup" transform="translate(130.000000, 150.000000)">
                <g id="card-projetos" transform="translate(720.000000, 395.000000)" sketch:type="MSShapeGroup">
                    <g id="dados" transform="translate(20.000000, 294.000000)">
                        <g id="conhecimentos" transform="translate(0.000000, 28.000000)">
                            <g id="icon">
                                <path d="M16.5505618,5.10993559 L15.680809,5.10993559 L15.680809,5.05971842 C15.680809,4.8628352 15.5628315,4.68681719 15.3855281,4.61925141 C14.3077753,4.2084177 13.2075056,4 12.1156854,4 C11.0756854,4 10.0282697,4.18938112 9,4.56228234 C7.97155056,4.18938112 6.92431461,4 5.88431461,4 C4.79231461,4 3.69222472,4.2084177 2.61447191,4.61925141 C2.43716854,4.68681719 2.31932584,4.8628352 2.31932584,5.05971842 L2.31932584,5.10974804 L1.4494382,5.10974804 C1.20121348,5.10974804 1,5.31961927 1,5.57862925 L1,14.5311188 C1,14.7901288 1.20121348,15 1.4494382,15 L16.5505618,15 C16.7987865,15 17,14.7901288 17,14.5311188 L17,5.5788168 C17,5.31980682 16.7987865,5.10993559 16.5505618,5.10993559 L16.5505618,5.10993559 Z M14.7819326,5.39346806 L14.7819326,12.4477389 C13.8985169,12.1748032 13.0042247,12.0367177 12.1155056,12.0367177 C11.2266517,12.0367177 10.3326742,12.1746625 9.4494382,12.4477389 L9.4494382,5.39328051 C10.3328539,5.09085213 11.2282247,4.93776241 12.1156854,4.93776241 C13.0029663,4.93776241 13.8985169,5.09085213 14.7819326,5.39346806 L14.7819326,5.39346806 Z M3.21806742,5.39328051 C4.10148315,5.09085213 4.99685393,4.93776241 5.88431461,4.93776241 C6.77159551,4.93776241 7.66714607,5.09085213 8.5505618,5.39346806 L8.5505618,12.4477389 C7.66714607,12.1748032 6.77280899,12.0367177 5.88413483,12.0367177 C4.99541573,12.0367177 4.10130337,12.1746625 3.21806742,12.4477389 L3.21806742,5.39328051 Z M1.8988764,6.04769801 L2.31919101,6.04769801 L2.31919101,13.0962954 C2.31919101,13.2493851 2.39078652,13.3928159 2.51105618,13.4805436 C2.58759551,13.5364342 2.6778427,13.5651766 2.76876404,13.5651766 C2.82058427,13.5651766 2.87289888,13.5558459 2.92292135,13.5367624 C3.90152809,13.1636736 4.8978427,12.9744801 5.88413483,12.9744801 C6.77141573,12.9744801 7.66678652,13.1281324 8.5505618,13.4305608 L8.5505618,14.0624251 L1.8988764,14.0624251 L1.8988764,6.04769801 Z M16.1011236,14.0624251 L9.4494382,14.0624251 L9.4494382,13.4305608 C10.3328539,13.1281324 11.2282247,12.9744801 12.1153258,12.9744801 C13.1016629,12.9744801 14.0981573,13.1636736 15.0770787,13.5367624 C15.2148764,13.5891833 15.3686742,13.5682712 15.4889438,13.4805436 C15.6092135,13.3928159 15.6806742,13.2493851 15.6806742,13.0962954 L15.6806742,6.04769801 L16.1011236,6.04769801 L16.1011236,14.0624251 Z M11.0733933,10.231525 L13.422382,10.231525 C13.6706517,10.231525 13.8718202,10.0216538 13.8718202,9.76264381 C13.8718202,9.50368072 13.6706517,9.2937626 13.422382,9.2937626 L11.0733933,9.2937626 C10.8253034,9.2937626 10.6239551,9.50368072 10.6239551,9.76264381 C10.6239551,10.0216538 10.8253034,10.231525 11.0733933,10.231525 L11.0733933,10.231525 Z M11.0733933,7.60579026 L13.422382,7.60579026 C13.6706517,7.60579026 13.8718202,7.39591903 13.8718202,7.13690905 C13.8718202,6.87794596 13.6706517,6.66802784 13.422382,6.66802784 L11.0733933,6.66802784 C10.8253034,6.66802784 10.6239551,6.87794596 10.6239551,7.13690905 C10.6239551,7.39591903 10.8253034,7.60579026 11.0733933,7.60579026 L11.0733933,7.60579026 Z M7.37604494,9.76264381 C7.37604494,9.50368072 7.17469663,9.2937626 6.92660674,9.2937626 L4.57761798,9.2937626 C4.32934831,9.2937626 4.12817978,9.50368072 4.12817978,9.76264381 C4.12817978,10.0216538 4.32934831,10.231525 4.57761798,10.231525 L6.92660674,10.231525 C7.17469663,10.231525 7.37604494,10.0216538 7.37604494,9.76264381 L7.37604494,9.76264381 Z M4.57761798,7.60579026 L6.92660674,7.60579026 C7.17469663,7.60579026 7.37604494,7.39591903 7.37604494,7.13690905 C7.37604494,6.87794596 7.17469663,6.66802784 6.92660674,6.66802784 L4.57761798,6.66802784 C4.32934831,6.66802784 4.12817978,6.87794596 4.12817978,7.13690905 C4.12817978,7.39591903 4.32934831,7.60579026 4.57761798,7.60579026 L4.57761798,7.60579026 Z" id="Fill-1"></path>
                            </g>
                        </g>
                    </g>
                </g>
            </g>
        </g>
    </g>
</svg>