<?xml version="1.0" encoding="UTF-8" standalone="no"?>
<svg width="16px" height="12px" viewBox="0 0 16 12" version="1.1" xmlns="http://www.w3.org/2000/svg" xmlns:xlink="http://www.w3.org/1999/xlink" xmlns:sketch="http://www.bohemiancoding.com/sketch/ns">
    <!-- Generator: Sketch 3.4.4 (17249) - http://www.bohemiancoding.com/sketch -->
    <title>projeto</title>
    <desc>Created with Sketch.</desc>
    <defs></defs>
    <g id="Page-1" stroke="none" stroke-width="1" fill="none" fill-rule="evenodd" sketch:type="MSPage">
        <g id="Painel" sketch:type="MSArtboardGroup" transform="translate(-151.000000, -4729.000000)" fill="#005E7C">
            <g id="conteudo-do-painel" sketch:type="MSLayerGroup" transform="translate(130.000000, 150.000000)">
                <g id="card-pessoa" transform="translate(0.000000, 4270.000000)" sketch:type="MSShapeGroup">
                    <g id="dados-na-empresa" transform="translate(20.000000, 278.000000)">
                        <g id="projeto" transform="translate(0.000000, 28.000000)">
                            <g id="icon">
                                <path d="M16.8763116,5.75645441 C16.785009,5.66048977 16.655243,5.60585463 16.5190825,5.60585463 L16.4289338,5.60585463 C16.3171975,4.65003588 15.4600399,3.90400878 14.4222002,3.90400878 L9.09612032,3.90400878 L9.09612032,3.45567255 C9.09612032,3.20395904 8.88086932,3 8.61532739,3 L3.01933033,3 C1.90581389,3 1,3.85844152 1,4.91382473 C1,4.92731263 1.00057695,4.94084611 1.00187509,4.95419731 L1.77114379,13.1265934 C1.77133611,13.1289174 1.77172074,13.1312413 1.77191306,13.1335197 C1.89489989,14.2499174 2.70532446,15 3.78859903,15 L14.2114687,15 C15.2530585,15 16.0435782,14.2759363 16.2251737,13.1552552 C16.2262796,13.1479645 16.2274335,13.1404914 16.2281546,13.1332007 L16.9974233,6.10850703 C17.0115106,5.98018964 16.9673738,5.85219122 16.8763116,5.75645441 L16.8763116,5.75645441 Z M15.4560974,5.60585463 L10.1538648,5.60585463 C9.64730134,5.60585463 9.22304966,5.26660642 9.12015997,4.81535389 L14.4223925,4.81535389 C14.9287156,4.81535389 15.3529673,5.1544654 15.4560974,5.60585463 L15.4560974,5.60585463 Z M15.2729633,13.0274391 C15.22849,13.2901799 15.0258358,14.0886549 14.2112764,14.0886549 L3.78859903,14.0886549 C3.093709,14.0886549 2.78552072,13.5486373 2.72859484,13.0422029 L1.96177819,4.89527885 C1.91802603,4.35097799 2.44257112,3.91134511 3.01933033,3.91134511 L8.13453445,3.91134511 L8.13453445,4.60337501 C8.13453445,5.65853038 9.04049258,6.51719974 10.1538648,6.51719974 L15.9858831,6.51719974 L15.2729633,13.0274391 Z" id="projeto"></path>
                            </g>
                        </g>
                    </g>
                </g>
            </g>
        </g>
    </g>
</svg>