<?xml version="1.0" encoding="UTF-8" standalone="no"?>
<svg width="11px" height="15px" viewBox="0 0 11 15" version="1.1" xmlns="http://www.w3.org/2000/svg" xmlns:xlink="http://www.w3.org/1999/xlink" xmlns:sketch="http://www.bohemiancoding.com/sketch/ns">
    <!-- Generator: Sketch 3.4.4 (17249) - http://www.bohemiancoding.com/sketch -->
    <title>icone</title>
    <desc>Created with Sketch.</desc>
    <defs></defs>
    <g id="Page-1" stroke="none" stroke-width="1" fill="none" fill-rule="evenodd" sketch:type="MSPage">
        <g id="Painel" sketch:type="MSArtboardGroup" transform="translate(-874.000000, -896.000000)" fill="#005E7C">
            <g id="conteudo-do-painel" sketch:type="MSLayerGroup" transform="translate(130.000000, 150.000000)">
                <g id="card-projetos" transform="translate(720.000000, 395.000000)" sketch:type="MSShapeGroup">
                    <g id="dados" transform="translate(20.000000, 294.000000)">
                        <g id="usuarios" transform="translate(0.000000, 56.000000)">
                            <g id="icon">
                                <path d="M12.2899877,8.78830673 L11.7084754,8.78830673 C12.8318279,8.03379492 13.5767623,6.72185889 13.5767623,5.23235213 C13.5767623,2.89861213 11.7479221,1 9.5,1 C7.25207787,1 5.4232377,2.89861213 5.4232377,5.23235213 C5.4232377,6.72185889 6.16817213,8.03379492 7.29152459,8.78830673 L6.7100123,8.78830673 C5.21581557,8.78830673 4,10.0505379 4,11.6017779 L4,15.5319696 C4,15.7903224 4.20183197,16 4.45081967,16 L14.5491803,16 C14.798168,16 15,15.7903224 15,15.5319696 L15,11.6017779 C15,10.0505379 13.7841844,8.78830673 12.2899877,8.78830673 L12.2899877,8.78830673 Z M6.32487705,5.23235213 C6.32487705,3.41475606 7.74919672,1.93606081 9.5,1.93606081 C11.2508033,1.93606081 12.675123,3.41475606 12.675123,5.23235213 C12.675123,7.04999501 11.2508033,8.52869026 9.5,8.52869026 C7.74919672,8.52869026 6.32487705,7.04999501 6.32487705,5.23235213 L6.32487705,5.23235213 Z M10.8190082,9.2373351 L9.5,10.6066985 L8.1809918,9.2373351 C8.59484426,9.38467107 9.03863115,9.46475107 9.5,9.46475107 C9.96136885,9.46475107 10.4051557,9.38448386 10.8190082,9.2373351 L10.8190082,9.2373351 Z M14.0983607,15.0639392 L12.8721762,15.0639392 L12.8721762,12.8150063 C12.8721762,12.5567003 12.6703443,12.3469759 12.4213566,12.3469759 C12.1723238,12.3469759 11.9705369,12.5567003 11.9705369,12.8150063 L11.9705369,15.0639392 L7.02946311,15.0639392 L7.02946311,12.8150063 C7.02946311,12.5567003 6.82767623,12.3469759 6.57864344,12.3469759 C6.32965574,12.3469759 6.12782377,12.5567003 6.12782377,12.8150063 L6.12782377,15.0639392 L4.90163934,15.0639392 L4.90163934,11.6017779 C4.90163934,10.566635 5.71293443,9.72436753 6.7100123,9.72436753 L7.37515164,9.72436753 L9.18127049,11.5994377 C9.26931557,11.6908441 9.38463525,11.7365238 9.5,11.7365238 C9.61536475,11.7365238 9.73068443,11.6908441 9.81872951,11.5994377 L11.6248484,9.72436753 L12.2899877,9.72436753 C13.2870656,9.72436753 14.0983607,10.566635 14.0983607,11.6017779 L14.0983607,15.0639392 Z" id="icone"></path>
                            </g>
                        </g>
                    </g>
                </g>
            </g>
        </g>
    </g>
</svg>