<?xml version="1.0" encoding="UTF-8" standalone="no"?>
<svg width="13px" height="17px" viewBox="0 0 13 17" version="1.1" xmlns="http://www.w3.org/2000/svg" xmlns:xlink="http://www.w3.org/1999/xlink" xmlns:sketch="http://www.bohemiancoding.com/sketch/ns">
    <!-- Generator: Sketch 3.4.4 (17249) - http://www.bohemiancoding.com/sketch -->
    <title>sede</title>
    <desc>Created with Sketch.</desc>
    <defs></defs>
    <g id="Page-1" stroke="none" stroke-width="1" fill="none" fill-rule="evenodd" sketch:type="MSPage">
        <g id="Painel" sketch:type="MSArtboardGroup" transform="translate(-153.000000, -4755.000000)" fill="#005E7C">
            <g id="conteudo-do-painel" sketch:type="MSLayerGroup" transform="translate(130.000000, 150.000000)">
                <g id="card-pessoa" transform="translate(0.000000, 4270.000000)" sketch:type="MSShapeGroup">
                    <g id="dados-na-empresa" transform="translate(20.000000, 278.000000)">
                        <g id="sede" transform="translate(0.000000, 56.000000)">
                            <g id="icon">
                                <path d="M9.5,1.0555493 C5.91584906,1.0555493 3,3.88558316 3,7.36437684 C3,8.64640794 3.39409527,9.88083873 4.13984838,10.9335487 C4.82802453,11.9053552 5.77059146,12.6639531 6.87530913,13.1373464 L8.9912769,16.7674511 C9.09497388,16.9454275 9.289508,17.0555493 9.5,17.0555493 C9.71055045,17.0555493 9.90508458,16.9454275 10.0087231,16.7674511 L12.1247493,13.1373464 C13.2294085,12.6639531 14.1719755,11.9053552 14.8601516,10.9335487 C15.6059047,9.88083873 16,8.64640794 16,7.36437684 C16,3.88558316 13.0842094,1.0555493 9.5,1.0555493 L9.5,1.0555493 Z M11.4952023,12.1637811 C11.3725663,12.2118353 11.270506,12.2989229 11.2052132,12.4104063 L9.5,15.3360379 L7.79478682,12.4104063 C7.72972779,12.2989229 7.6274337,12.2118353 7.50503152,12.1637811 C5.47855646,11.3694971 4.16907526,9.48551224 4.16907526,7.36437684 C4.16907526,4.51125201 6.56041871,2.19024071 9.5,2.19024071 C12.4395813,2.19024071 14.8309247,4.51125201 14.8309247,7.36437684 C14.8309247,9.48551224 13.5216774,11.3694971 11.4952023,12.1637811 L11.4952023,12.1637811 Z M9.5,4.94782453 C8.14621085,4.94782453 7.04494195,6.01693078 7.04494195,7.33067651 C7.04494195,8.64464917 8.14621085,9.71352848 9.5,9.71352848 C10.8537892,9.71352848 11.955058,8.64464917 11.955058,7.33067651 C11.955058,6.01693078 10.8537892,4.94782453 9.5,4.94782453 L9.5,4.94782453 Z M9.5,8.57883706 C8.79101431,8.57883706 8.21401721,8.01903705 8.21401721,7.33067651 C8.21401721,6.6425429 8.79101431,6.08251595 9.5,6.08251595 C10.2092195,6.08251595 10.7859828,6.6425429 10.7859828,7.33067651 C10.7859828,8.01903705 10.2092195,8.57883706 9.5,8.57883706 L9.5,8.57883706 Z" id="sede"></path>
                            </g>
                        </g>
                    </g>
                </g>
            </g>
        </g>
    </g>
</svg>