<?xml version="1.0" encoding="UTF-8" standalone="no"?>
<svg width="12px" height="11px" viewBox="0 0 12 11" version="1.1" xmlns="http://www.w3.org/2000/svg" xmlns:xlink="http://www.w3.org/1999/xlink" xmlns:sketch="http://www.bohemiancoding.com/sketch/ns">
    <!-- Generator: Sketch 3.4.4 (17249) - http://www.bohemiancoding.com/sketch -->
    <title>favorito</title>
    <desc>Created with Sketch.</desc>
    <defs></defs>
    <g id="Page-1" stroke="none" stroke-width="1" fill="none" fill-rule="evenodd" sketch:type="MSPage">
        <g id="Painel" sketch:type="MSArtboardGroup" transform="translate(-870.000000, -967.000000)" fill="#005E7C">
            <g id="conteudo-do-painel" sketch:type="MSLayerGroup" transform="translate(130.000000, 150.000000)">
                <g id="card-projetos" transform="translate(720.000000, 395.000000)" sketch:type="MSShapeGroup">
                    <g id="interacoes" transform="translate(20.000000, 421.000000)">
                        <g id="curtidas">
                            <path d="M5.99991881,12 C5.88701918,12 5.77915356,11.9537969 5.70242566,11.872583 L0.906444738,6.80107687 C0.905186238,6.7998023 0.903927738,6.79840824 0.902791028,6.7971735 C0.32063331,6.16470895 0,5.3267203 0,4.43723115 C0,3.54774199 0.32063331,2.70975334 0.902791028,2.07728879 L0.975581041,1.99826557 C1.56821273,1.35456889 2.35936263,1 3.20349132,1 C4.04762001,1 4.8389323,1.35456889 5.43156399,1.99826557 L5.99991881,2.61575395 L6.56843601,1.99826557 C7.1610677,1.35456889 7.9522176,1 8.79634629,1 C9.64047498,1 10.4317873,1.35456889 11.024419,1.99826557 L11.0970466,2.07728879 C11.6793261,2.70975334 12,3.54790131 12,4.43723115 C12,5.3267203 11.6793261,6.16486827 11.097209,6.7971735 C11.0960723,6.79856756 11.0948138,6.7998023 11.0935553,6.80107687 L6.29757434,11.872583 C6.22080585,11.9537969 6.11298082,12 5.99991881,12 L5.99991881,12 Z" id="favorito"></path>
                        </g>
                    </g>
                </g>
            </g>
        </g>
    </g>
</svg>