<?xml version="1.0" encoding="UTF-8" standalone="no"?>
<svg width="14px" height="14px" viewBox="0 0 14 14" version="1.1" xmlns="http://www.w3.org/2000/svg" xmlns:xlink="http://www.w3.org/1999/xlink" xmlns:sketch="http://www.bohemiancoding.com/sketch/ns">
    <!-- Generator: Sketch 3.4.4 (17249) - http://www.bohemiancoding.com/sketch -->
    <title>icone</title>
    <desc>Created with Sketch.</desc>
    <defs></defs>
    <g id="Page-1" stroke="none" stroke-width="1" fill="none" fill-rule="evenodd" sketch:type="MSPage">
        <g id="Painel" sketch:type="MSArtboardGroup" transform="translate(-872.000000, -841.000000)" fill="#005E7C">
            <g id="conteudo-do-painel" sketch:type="MSLayerGroup" transform="translate(130.000000, 150.000000)">
                <g id="card-projetos" transform="translate(720.000000, 395.000000)" sketch:type="MSShapeGroup">
                    <g id="dados" transform="translate(20.000000, 294.000000)">
                        <g id="publicacoes">
                            <g id="icon">
                                <path d="M13.5454788,2 L4.45452123,2 C3.10109822,2 2,3.14761144 2,4.55832057 L2,10.4026504 C2,11.8133596 3.10109822,12.960971 4.45452123,12.960971 L10.2448841,12.9611757 L13.0167749,15.8502871 C13.110734,15.9480149 13.2363564,16 13.3640406,16 C13.4273181,16 13.4909884,15.9872084 13.5517623,15.9610112 C13.7353114,15.8818568 13.8549448,15.6954064 13.8549448,15.4883359 L13.8549448,12.9408114 C15.0628638,12.7818886 16,11.7042216 16,10.4026504 L16,4.55832057 C16,3.14761144 14.8989018,2 13.5454788,2 L13.5454788,2 Z M15.0181915,10.4028551 C15.0181915,11.2490964 14.3575326,11.9378474 13.5454788,11.9378474 L13.3640406,11.9378474 C13.0929141,11.9378474 12.8731363,12.1669195 12.8731363,12.4495115 L12.8731363,14.2531275 L10.7954332,12.0875603 C10.7033886,11.9916233 10.5785517,11.9378474 10.4483639,11.9378474 L4.45452123,11.9378474 C3.64241833,11.9378474 2.98180849,11.2490964 2.98180849,10.4028551 L2.98180849,4.55832057 C2.98180849,3.71187463 3.64241833,3.02332823 4.45452123,3.02332823 L13.5454788,3.02332823 C14.3575326,3.02332823 15.0181915,3.71187463 15.0181915,4.55832057 L15.0181915,10.4028551 Z M12.6131043,8.4883103 L5.38684657,8.4883103 C5.11591652,8.4883103 4.89594233,8.71738233 4.89594233,8.99997442 C4.89594233,9.28261767 5.11591652,9.51163853 5.38684657,9.51163853 L12.6131043,9.51163853 C12.8840835,9.51163853 13.1040086,9.28261767 13.1040086,8.99997442 C13.1040086,8.71738233 12.8840835,8.4883103 12.6131043,8.4883103 L12.6131043,8.4883103 Z M12.6131043,5.62299126 L5.38684657,5.62299126 C5.11591652,5.62299126 4.89594233,5.85206329 4.89594233,6.13465538 C4.89594233,6.41729863 5.11591652,6.64631949 5.38684657,6.64631949 L12.6131043,6.64631949 C12.8840835,6.64631949 13.1040086,6.41729863 13.1040086,6.13465538 C13.1040086,5.85206329 12.8840835,5.62299126 12.6131043,5.62299126 L12.6131043,5.62299126 Z" id="icone"></path>
                            </g>
                        </g>
                    </g>
                </g>
            </g>
        </g>
    </g>
</svg>