<?xml version="1.0" encoding="UTF-8" standalone="no"?>
<svg width="32px" height="32px" viewBox="0 0 32 32" version="1.1" xmlns="http://www.w3.org/2000/svg" xmlns:xlink="http://www.w3.org/1999/xlink" xmlns:sketch="http://www.bohemiancoding.com/sketch/ns">
    <!-- Generator: Sketch 3.4.4 (17249) - http://www.bohemiancoding.com/sketch -->
    <title>Fill 488</title>
    <desc>Created with Sketch.</desc>
    <defs></defs>
    <g id="Page-1" stroke="none" stroke-width="1" fill="none" fill-rule="evenodd" sketch:type="MSPage">
        <path d="M19.428,16.006 L17.186,16.006 L17.186,24 L13.864,24 L13.864,16.006 L12.284,16.006 L12.284,13.182 L13.864,13.182 L13.864,11.354 C13.864,10.045 14.485,8 17.216,8 L19.677,8.01 L19.677,10.752 L17.891,10.752 C17.6,10.752 17.186,10.896 17.186,11.521 L17.186,13.182 L19.719,13.182 L19.428,16.006 L19.428,16.006 Z M16,0 C7.164,0 0,7.164 0,16 C0,24.838 7.164,32 16,32 C24.837,32 32,24.838 32,16 C32,7.164 24.837,0 16,0 L16,0 Z" id="Fill-488" fill="#FFFFFF" sketch:type="MSShapeGroup"></path>
    </g>
</svg>