<?xml version="1.0" encoding="UTF-8" standalone="no"?>
<svg width="32px" height="32px" viewBox="0 0 32 32" version="1.1" xmlns="http://www.w3.org/2000/svg" xmlns:xlink="http://www.w3.org/1999/xlink" xmlns:sketch="http://www.bohemiancoding.com/sketch/ns">
    <!-- Generator: Sketch 3.4.4 (17249) - http://www.bohemiancoding.com/sketch -->
    <title>Fill 509</title>
    <desc>Created with Sketch.</desc>
    <defs></defs>
    <g id="Page-1" stroke="none" stroke-width="1" fill="none" fill-rule="evenodd" sketch:type="MSPage">
        <path d="M23.92,12.371 C23.025,17.406 18.031,21.672 16.528,22.646 C15.025,23.621 13.654,22.256 13.158,21.225 C12.588,20.047 10.883,13.67 10.436,13.143 C9.99,12.615 8.649,13.67 8.649,13.67 L8,12.818 C8,12.818 10.721,9.568 12.791,9.162 C14.987,8.73 14.984,12.533 15.513,14.645 C16.023,16.686 16.367,17.854 16.812,17.854 C17.26,17.854 18.112,16.715 19.046,14.971 C19.98,13.223 19.006,11.68 17.178,12.777 C17.908,8.391 24.813,7.336 23.92,12.371 L23.92,12.371 Z M16,0 C7.164,0 0,7.164 0,16 C0,24.838 7.164,32 16,32 C24.836,32 32,24.838 32,16 C32,7.164 24.836,0 16,0 L16,0 Z" id="Fill-509" fill="#FFFFFF" sketch:type="MSShapeGroup"></path>
    </g>
</svg>