<?xml version="1.0" encoding="UTF-8" standalone="no"?>
<svg width="32px" height="32px" viewBox="0 0 32 32" version="1.1" xmlns="http://www.w3.org/2000/svg" xmlns:xlink="http://www.w3.org/1999/xlink" xmlns:sketch="http://www.bohemiancoding.com/sketch/ns">
    <!-- Generator: Sketch 3.4.4 (17249) - http://www.bohemiancoding.com/sketch -->
    <title>Fill 510</title>
    <desc>Created with Sketch.</desc>
    <defs></defs>
    <g id="Page-1" stroke="none" stroke-width="1" fill="none" fill-rule="evenodd" sketch:type="MSPage">
        <path d="M15.859,13.563 C15.983,13.563 16.08,13.529 16.153,13.461 C16.226,13.393 16.263,13.297 16.263,13.178 L16.263,10.748 C16.263,10.65 16.226,10.572 16.152,10.512 C16.077,10.451 15.98,10.422 15.859,10.422 C15.748,10.422 15.657,10.451 15.587,10.512 C15.519,10.572 15.484,10.65 15.484,10.748 L15.484,13.178 C15.484,13.301 15.517,13.395 15.581,13.461 C15.646,13.531 15.738,13.563 15.859,13.563 Z M24,20.902 C24,22.516 22.691,23.826 21.077,23.826 L10.922,23.826 C9.308,23.826 8,22.516 8,20.902 L8,18.553 C8,16.939 9.308,15.629 10.922,15.629 L21.077,15.629 C22.691,15.629 24,16.939 24,18.553 L24,20.902 Z M12.064,8.176 L12.73,10.594 L12.794,10.594 L13.43,8.176 L14.472,8.176 L13.278,11.715 L13.278,14.223 L12.252,14.223 L12.252,11.826 L11.03,8.176 L12.064,8.176 L12.064,8.176 Z M14.546,10.781 C14.546,10.436 14.669,10.16 14.913,9.957 C15.158,9.752 15.489,9.65 15.904,9.65 C16.28,9.65 16.589,9.758 16.831,9.973 C17.071,10.188 17.191,10.469 17.191,10.807 L17.191,13.111 C17.191,13.494 17.073,13.791 16.838,14.01 C16.601,14.227 16.276,14.336 15.862,14.336 C15.463,14.336 15.144,14.223 14.905,13.998 C14.666,13.773 14.546,13.473 14.546,13.094 L14.546,10.781 L14.546,10.781 Z M17.93,9.762 L18.84,9.762 L18.84,13.182 C18.84,13.287 18.862,13.363 18.899,13.41 C18.936,13.459 18.999,13.482 19.084,13.482 C19.151,13.482 19.237,13.451 19.339,13.389 C19.441,13.324 19.534,13.246 19.619,13.148 L19.619,9.762 L20.531,9.762 L20.531,14.223 L19.619,14.223 L19.619,13.729 C19.452,13.91 19.278,14.051 19.095,14.145 C18.913,14.238 18.738,14.289 18.567,14.289 C18.355,14.289 18.197,14.221 18.09,14.086 C17.984,13.955 17.93,13.756 17.93,13.49 L17.93,9.762 L17.93,9.762 Z M16,0 C7.164,0 0,7.164 0,16 C0,24.838 7.164,32 16,32 C24.837,32 32,24.838 32,16 C32,7.164 24.837,0 16,0 L16,0 Z M17.825,21.201 C17.825,21.332 17.802,21.424 17.756,21.48 C17.709,21.539 17.637,21.568 17.537,21.568 C17.469,21.568 17.405,21.553 17.342,21.523 C17.28,21.496 17.215,21.445 17.15,21.381 L17.15,18.857 C17.205,18.801 17.26,18.76 17.317,18.732 C17.373,18.707 17.431,18.693 17.488,18.693 C17.597,18.693 17.682,18.729 17.74,18.799 C17.798,18.869 17.825,18.973 17.825,19.111 L17.825,21.201 L17.825,21.201 Z M17.87,18.051 C17.744,18.051 17.62,18.082 17.496,18.146 C17.375,18.211 17.259,18.307 17.15,18.428 L17.15,16.66 L16.331,16.66 L16.331,22.15 L17.15,22.15 L17.15,21.84 C17.255,21.965 17.372,22.055 17.496,22.113 C17.619,22.174 17.76,22.201 17.919,22.201 C18.158,22.201 18.343,22.127 18.469,21.973 C18.597,21.818 18.659,21.6 18.659,21.314 L18.659,19.066 C18.659,18.734 18.593,18.482 18.457,18.309 C18.322,18.137 18.127,18.051 17.87,18.051 Z M10.256,17.459 L11.199,17.459 L11.199,22.15 L12.112,22.15 L12.112,17.459 L13.056,17.459 L13.056,16.66 L10.256,16.66 L10.256,17.459 Z M14.913,21.176 C14.837,21.264 14.754,21.336 14.662,21.395 C14.571,21.451 14.495,21.479 14.437,21.479 C14.362,21.479 14.306,21.459 14.271,21.414 C14.238,21.371 14.221,21.303 14.221,21.207 L14.221,18.1 L13.411,18.1 L13.411,21.486 C13.411,21.729 13.459,21.906 13.553,22.027 C13.649,22.15 13.788,22.209 13.977,22.209 C14.128,22.209 14.285,22.168 14.446,22.08 C14.609,21.994 14.764,21.869 14.913,21.705 L14.913,22.15 L15.723,22.15 L15.723,18.1 L14.913,18.1 L14.913,21.176 Z M20.634,19.592 L19.918,19.592 L19.918,19.184 C19.918,19.014 19.946,18.891 20.002,18.82 C20.059,18.744 20.151,18.707 20.28,18.707 C20.403,18.707 20.494,18.744 20.549,18.82 C20.605,18.891 20.634,19.014 20.634,19.184 L20.634,19.592 Z M20.314,18 C19.951,18 19.657,18.109 19.428,18.33 C19.198,18.551 19.084,18.84 19.084,19.189 L19.084,21.008 C19.084,21.398 19.19,21.705 19.397,21.926 C19.605,22.15 19.891,22.26 20.253,22.26 C20.656,22.26 20.96,22.156 21.161,21.947 C21.366,21.736 21.467,21.424 21.467,21.008 L21.467,20.801 L20.634,20.801 L20.634,20.984 C20.634,21.223 20.606,21.377 20.554,21.447 C20.5,21.518 20.406,21.553 20.272,21.553 C20.143,21.553 20.051,21.512 19.997,21.43 C19.945,21.346 19.918,21.197 19.918,20.984 L19.918,20.223 L21.467,20.223 L21.467,19.189 C21.467,18.805 21.367,18.512 21.168,18.307 C20.97,18.102 20.685,18 20.314,18 L20.314,18 Z" id="Fill-510" fill="#FFFFFF" sketch:type="MSShapeGroup"></path>
    </g>
</svg>