<?xml version="1.0" encoding="UTF-8" standalone="no"?>
<svg width="148px" height="39px" viewBox="0 0 148 39" version="1.1" xmlns="http://www.w3.org/2000/svg" xmlns:xlink="http://www.w3.org/1999/xlink" xmlns:sketch="http://www.bohemiancoding.com/sketch/ns">
    <!-- Generator: Sketch 3.4.4 (17249) - http://www.bohemiancoding.com/sketch -->
    <title>enlighten</title>
    <desc>Created with Sketch.</desc>
    <defs></defs>
    <g id="Page-1" stroke="none" stroke-width="1" fill="none" fill-rule="evenodd" sketch:type="MSPage">
        <g id="Painel" sketch:type="MSArtboardGroup" transform="translate(-115.000000, -5292.000000)" fill="#FFFFFF">
            <g id="rodape" sketch:type="MSLayerGroup" transform="translate(0.000000, 5220.000000)">
                <g id="sobre" transform="translate(60.000000, 72.000000)" sketch:type="MSShapeGroup">
                    <path d="M56.831828,19.2341941 C56.831828,21.9183444 57.4519719,24.017293 58.6922783,25.5311029 C59.9325848,27.0449128 61.6340052,27.8018064 63.7965908,27.8018064 C65.9846185,27.8018064 68.1217298,26.9940292 70.2079888,25.3784506 L70.2079888,27.2484417 C68.1853353,28.685925 65.9273754,29.4046559 63.4340415,29.4046559 C60.9152654,29.4046559 58.8799213,28.501472 57.3279481,26.695077 C55.7759749,24.888682 55,22.3381414 55,19.0433787 C55,16.1938542 55.8109574,13.7927842 57.4328966,11.8400967 C59.0548357,9.88740914 61.163325,8.91108002 63.7584277,8.91108002 C66.1881562,8.91108002 68.0517681,9.76338036 69.3493194,11.4680066 C70.6468708,13.1726329 71.2956367,15.5005577 71.2956367,18.4518509 L71.2956367,19.2341941 L56.831828,19.2341941 Z M69.4638087,17.6313446 C69.3874821,15.3797114 68.8468438,13.6305876 67.8418776,12.3839206 C66.8369114,11.1372537 65.4503332,10.5139295 63.6821015,10.5139295 C61.8502643,10.5139295 60.3332969,11.127713 59.1311538,12.3552983 C57.9290107,13.5828836 57.1880182,15.3415481 56.9081542,17.6313446 L69.4638087,17.6313446 Z M89.4231014,28.9276174 L89.4231014,17.5550184 C89.4231014,12.8609357 87.7312216,10.5139295 84.3474113,10.5139295 C82.4646897,10.5139295 80.9191003,11.2040384 79.7105966,12.5842768 C78.5020929,13.9645152 77.8978501,15.6722961 77.8978501,17.7076708 L77.8978501,28.9276174 L76.1423483,28.9276174 L76.1423483,9.38811856 L77.8978501,9.38811856 L77.8978501,12.9372853 L77.9741763,12.9372853 C79.3989386,10.253135 81.6250962,8.91108002 84.6527159,8.91108002 C86.7644171,8.91108002 88.3799715,9.61390978 89.4994276,11.0195904 C90.6188836,12.425271 91.1786032,14.4319931 91.1786032,17.0398168 L91.1786032,28.9276174 L89.4231014,28.9276174 Z M97.0557181,28.9276174 L97.0557181,0 L98.8112199,0 L98.8112199,28.9276174 L97.0557181,28.9276174 Z M105.928635,4.46508078 C105.547002,4.46508078 105.209898,4.32515087 104.917313,4.04528686 C104.624728,3.76542285 104.478438,3.40923763 104.478438,2.97672052 C104.478438,2.5569245 104.627908,2.21664041 104.926854,1.95585803 C105.2258,1.69507566 105.559723,1.56468643 105.928635,1.56468643 C106.322989,1.56468643 106.669633,1.69189543 106.968579,1.94631726 C107.267525,2.20073909 107.416995,2.54420341 107.416995,2.97672052 C107.416995,3.38379545 107.270705,3.73362021 106.97812,4.02620532 C106.685535,4.31879042 106.33571,4.46508078 105.928635,4.46508078 L105.928635,4.46508078 Z M105.069966,28.9276174 L105.069966,9.38811856 L106.825467,9.38811856 L106.825467,28.9276174 L105.069966,28.9276174 Z M128.711996,27.4774202 C128.711996,31.1538156 127.910579,33.8442861 126.307722,35.5489124 C124.704864,37.2535386 122.211568,38.105839 118.827757,38.105839 C116.945036,38.105839 115.005098,37.6097238 113.007887,36.6174787 L113.007887,34.7856507 C115.068704,35.9305489 117.021362,36.5029894 118.86592,36.5029894 C124.259663,36.5029894 126.956494,33.6535077 126.956494,27.9544587 L126.956494,25.4166137 L126.880168,25.4166137 C125.340916,28.0753218 122.99391,29.4046559 119.839079,29.4046559 C117.434793,29.4046559 115.472594,28.5332742 113.952423,26.7904847 C112.432253,25.0476951 111.672179,22.6180031 111.672179,19.5013357 C111.672179,16.3846683 112.492677,13.8404882 114.133698,11.868719 C115.774719,9.89694982 117.937272,8.91108002 120.621422,8.91108002 C123.496389,8.91108002 125.582617,10.1004842 126.880168,12.4793283 L126.956494,12.4793283 L126.956494,9.38811856 L128.711996,9.38811856 L128.711996,27.4774202 Z M126.956494,16.8871645 C126.956494,15.157096 126.374513,13.6623902 125.210533,12.4030022 C124.046553,11.1436141 122.529586,10.5139295 120.659585,10.5139295 C118.509721,10.5139295 116.779678,11.3217067 115.469406,12.9372853 C114.159134,14.5528639 113.504007,16.6899753 113.504007,19.3486834 C113.504007,22.0201126 114.10507,24.0967996 115.307213,25.5788068 C116.509356,27.0608139 118.096288,27.8018064 120.068057,27.8018064 C122.167038,27.8018064 123.839836,27.1212382 125.086503,25.7600814 C126.33317,24.3989246 126.956494,22.7324866 126.956494,20.7607175 L126.956494,16.8871645 Z M148.251495,28.9276174 L148.251495,17.2115507 C148.251495,14.896312 147.831705,13.201252 146.992113,12.1263198 C146.152521,11.0513876 144.842268,10.5139295 143.061315,10.5139295 C141.382131,10.5139295 139.906507,11.1690559 138.634398,12.4793283 C137.362289,13.7896008 136.726243,15.6659336 136.726243,18.1083832 L136.726243,28.9276174 L134.970742,28.9276174 L134.970742,0 L136.726243,0 L136.726243,12.8991222 L136.80257,12.8991222 C138.341822,10.2404141 140.5807,8.91108002 143.519272,8.91108002 C145.630974,8.91108002 147.240167,9.5916482 148.346902,10.952805 C149.453637,12.3139618 150.006997,14.26662 150.006997,16.8108383 L150.006997,28.9276174 L148.251495,28.9276174 Z M163.612136,28.6604758 C162.696217,29.0929929 161.837556,29.3092482 161.036128,29.3092482 C158.14844,29.3092482 156.704618,27.5792057 156.704618,24.1190688 L156.704618,10.9909681 L153.193614,10.9909681 L153.193614,9.38811856 L156.704618,9.38811856 L156.704618,4.31242844 C156.984482,4.21065971 157.277062,4.10889251 157.582369,4.00712378 C157.887675,3.91807614 158.180256,3.82266938 158.46012,3.72090065 L158.46012,9.38811856 L163.612136,9.38811856 L163.612136,10.9909681 L158.46012,10.9909681 L158.46012,23.8900903 C158.46012,25.238526 158.673195,26.2148551 159.099351,26.819107 C159.525508,27.4233588 160.247419,27.7254802 161.265106,27.7254802 C161.990208,27.7254802 162.772544,27.4901436 163.612136,27.0194632 L163.612136,28.6604758 Z M167.905483,19.2341941 C167.905483,21.9183444 168.525627,24.017293 169.765933,25.5311029 C171.00624,27.0449128 172.70766,27.8018064 174.870246,27.8018064 C177.058273,27.8018064 179.195385,26.9940292 181.281644,25.3784506 L181.281644,27.2484417 C179.25899,28.685925 177.00103,29.4046559 174.507696,29.4046559 C171.98892,29.4046559 169.953576,28.501472 168.401603,26.695077 C166.84963,24.888682 166.073655,22.3381414 166.073655,19.0433787 C166.073655,16.1938542 166.884612,13.7927842 168.506551,11.8400967 C170.12849,9.88740914 172.23698,8.91108002 174.832082,8.91108002 C177.261811,8.91108002 179.125423,9.76338036 180.422974,11.4680066 C181.720526,13.1726329 182.369291,15.5005577 182.369291,18.4518509 L182.369291,19.2341941 L167.905483,19.2341941 Z M180.537463,17.6313446 C180.461137,15.3797114 179.920499,13.6305876 178.915532,12.3839206 C177.910566,11.1372537 176.523988,10.5139295 174.755756,10.5139295 C172.923919,10.5139295 171.406952,11.127713 170.204809,12.3552983 C169.002665,13.5828836 168.261673,15.3415481 167.981809,17.6313446 L180.537463,17.6313446 Z M200.496756,28.9276174 L200.496756,17.5550184 C200.496756,12.8609357 198.804876,10.5139295 195.421066,10.5139295 C193.538344,10.5139295 191.992755,11.2040384 190.784251,12.5842768 C189.575748,13.9645152 188.971505,15.6722961 188.971505,17.7076708 L188.971505,28.9276174 L187.216003,28.9276174 L187.216003,9.38811856 L188.971505,9.38811856 L188.971505,12.9372853 L189.047831,12.9372853 C190.472593,10.253135 192.698751,8.91108002 195.726371,8.91108002 C197.838072,8.91108002 199.453626,9.61390978 200.573082,11.0195904 C201.692538,12.425271 202.252258,14.4319931 202.252258,17.0398168 L202.252258,28.9276174 L200.496756,28.9276174 Z" id="enlighten"></path>
                </g>
            </g>
        </g>
    </g>
</svg>