<svg width="250" height="250" viewBox="0 0 250 250" xmlns="http://www.w3.org/2000/svg"><path d="M13.89 27.5C6.25 27.5 0 33.768 0 41.43v167.14c0 7.662 6.25 13.93 13.89 13.93h222.22c7.64 0 13.89-6.268 13.89-13.93V41.43c0-7.662-6.25-13.93-13.89-13.93H13.89zm0 131.802V41.09h222.22v111.248s-48.61 20.893-97.22-6.964c-21.53-12.536-69.446-27.857-125 13.928zM180.555 125c15.34 0 27.777-12.472 27.777-27.857s-12.436-27.857-27.777-27.857c-15.342 0-27.778 12.472-27.778 27.857S165.214 125 180.557 125z" fill="#4A5E6E" fill-rule="evenodd"/></svg>
