<?xml version="1.0" encoding="UTF-8" standalone="no"?>
<svg width="250px" height="250px" viewBox="0 0 250 250" version="1.1" xmlns="http://www.w3.org/2000/svg" xmlns:xlink="http://www.w3.org/1999/xlink" xmlns:sketch="http://www.bohemiancoding.com/sketch/ns">
    <!-- Generator: Sketch 3.3.3 (12072) - http://www.bohemiancoding.com/sketch -->
    <title>icn-picture</title>
    <desc>Created with Sketch.</desc>
    <defs></defs>
    <g id="Page-1" stroke="none" stroke-width="1" fill="none" fill-rule="evenodd" sketch:type="MSPage">
        <g id="icn-picture" sketch:type="MSArtboardGroup" fill="#4A5E6E">
            <path d="M13.8888889,27.5 C6.25,27.5 0,33.7678571 0,41.4285714 L0,208.571429 C0,216.232143 6.25,222.5 13.8888889,222.5 L236.111111,222.5 C243.75,222.5 250,216.232143 250,208.571429 L250,41.4285714 C250,33.7678571 243.75,27.5 236.111111,27.5 L13.8888889,27.5 Z M13.8888889,159.30244 L13.8888889,41.0899257 L236.111107,41.0899257 L236.111111,152.338154 C236.111111,152.338154 187.5,173.231011 138.888889,145.373868 C117.361111,132.838154 69.4444444,117.516725 13.8888889,159.30244 Z M180.555556,125 C195.896799,125 208.333333,112.527932 208.333333,97.1428571 C208.333333,81.757782 195.896799,69.2857143 180.555556,69.2857143 C165.214313,69.2857143 152.777778,81.757782 152.777778,97.1428571 C152.777778,112.527932 165.214313,125 180.555556,125 Z" id="icn-image" sketch:type="MSShapeGroup"></path>
        </g>
    </g>
</svg>