<svg width="250" height="250" viewBox="0 0 250 250" xmlns="http://www.w3.org/2000/svg"><path d="M115.947 201.084c0 4.985 4.04 9.025 9.025 9.025s9.025-4.04 9.025-9.03v-25.77c1.075-1.49 1.717-3.31 1.717-5.28 0-4.98-4.043-9.03-9.025-9.03h-3.44c-4.99 0-9.03 4.04-9.03 9.02 0 1.97.64 3.79 1.71 5.27v25.77zm93.835-115.886h-17.716v-36.7c0-26.54-21.59-48.132-48.13-48.132h-37.928c-26.536 0-48.126 21.59-48.126 48.13V85.2h-17.72c-4.984 0-9.025 4.04-9.025 9.025v88.154c0 36.79 29.932 66.72 66.72 66.72h54.23c36.788 0 66.72-29.93 66.72-66.72V94.22c0-4.986-4.04-9.025-9.025-9.025zm-133.85-36.7c0-16.588 13.492-30.08 30.08-30.08h37.923c16.588 0 30.08 13.492 30.08 30.08v36.7H75.932v-36.7zm124.824 133.88c0 26.836-21.834 48.67-48.67 48.67h-54.23c-26.835 0-48.668-21.834-48.668-48.67v-79.13h151.568v79.13z" fill="#FFF" fill-rule="evenodd"/></svg>
