<svg width="250" height="250" viewBox="0 0 250 250" xmlns="http://www.w3.org/2000/svg"><path d="M39.155 91.386l81.356 50.126c1.37.84 2.91 1.26 4.45 1.26 1.55 0 3.08-.42 4.45-1.26l81.36-50.126c3.988-2.456 5.226-7.678 2.77-11.66-2.453-3.985-7.673-5.227-11.66-2.77l-76.91 47.388-76.91-47.388c-3.982-2.453-9.202-1.215-11.66 2.77-2.455 3.982-1.22 9.204 2.77 11.66zm202.284-56.87H8.47C3.792 34.516 0 38.31 0 42.993V207.73c0 4.68 3.794 8.473 8.475 8.473H241.44c4.68 0 8.474-3.793 8.474-8.474V42.99c0-4.682-3.794-8.475-8.475-8.475zM16.95 51.466h216.014v147.79H16.95V51.466z" fill="#FFF" fill-rule="evenodd"/></svg>
